<svg width="200" height="35" viewBox="0 0 200 35" fill="none" xmlns="http://www.w3.org/2000/svg">
<path d="M0 20.6963C0.0524297 16.1703 1.7289 12.5257 5.05754 9.69535C6.42711 8.53156 7.98977 7.58558 9.48465 6.56868C11.4156 5.25419 12.9194 3.57498 13.9898 1.51459C14.3018 0.914329 14.6496 0.352059 15.3299 0.100051C15.8824 -0.103835 16.4003 0.0164707 16.8325 0.373588C17.1125 0.605334 17.3721 0.895333 17.546 1.21066C18.7532 3.38755 20.5358 5.01484 22.5716 6.39519C24.5908 7.76287 26.5818 9.16094 28.202 11.0035C30.0754 13.1336 31.3312 15.5536 31.8056 18.3675C32.5102 22.544 31.2583 26.1455 28.6509 29.3874C26.1317 32.5205 22.7685 34.1921 18.8632 34.7759C13.8146 35.5306 9.17903 34.4035 5.18031 31.2047C2.44885 29.0177 0.754476 26.1468 0.148338 22.6972C0.0242967 21.9893 0.0383632 21.2586 0 20.6963ZM18.8197 4.92113C18.8542 4.97812 18.8887 5.03637 18.9233 5.09336C19.4258 5.9051 20.0026 6.68265 20.4182 7.53619C21.3031 9.3547 21.2251 11.2087 20.3747 13.0284C19.6419 14.5949 18.4808 15.8474 17.234 17.0137C15.7583 18.3941 14.3031 19.7883 13.0844 21.4017C11.7609 23.1544 10.8529 25.0742 10.7404 27.3043C10.6253 29.5812 11.4616 31.4174 13.3248 32.7699C14.2621 33.45 15.8862 33.8261 16.7366 33.6007C16.6061 33.5209 16.454 33.4538 16.3325 33.3499C14.8657 32.0861 14.032 30.5019 14.0013 28.5668C13.9642 26.1785 14.6957 23.9978 16.0844 22.064C17.3261 20.3354 18.6598 18.6714 19.9578 16.9821C21.633 14.8039 22.4604 12.4282 21.7788 9.66876C21.3095 7.76794 20.2481 6.24069 18.8171 4.92366L18.8197 4.92113ZM11.6138 33.0105C11.6138 32.9979 11.6189 32.9814 11.6138 32.9751C11.5473 32.8966 11.4783 32.8206 11.4105 32.7433C10.5921 31.8049 9.95141 30.7703 9.6931 29.5419C9.31458 27.731 9.5665 25.9644 10.1701 24.2447C10.9565 22.0096 12.413 20.1999 14.0332 18.5131C15.2852 17.21 16.6138 15.9753 17.8299 14.6418C19.188 13.1526 20.1036 11.4569 19.7174 9.3433C19.6189 8.80256 19.4335 8.27828 19.289 7.74641C19.2442 7.75654 19.1995 7.7654 19.1547 7.77553C19.1547 8.11366 19.2072 8.46191 19.1458 8.78863C18.8747 10.2361 18.2289 11.5139 17.2749 12.6397C16.1074 14.0175 14.6726 15.1066 13.2532 16.2032C11.5435 17.5241 9.90921 18.9158 8.6266 20.6647C7.08312 22.7706 6.25575 25.0818 6.54604 27.7285C6.80691 30.1169 8.8798 32.6154 11.6151 33.0093L11.6138 33.0105ZM21.9962 6.91567C21.9795 6.97772 21.968 6.99418 21.9731 7.00431C22.0115 7.08283 22.0499 7.16261 22.0921 7.23859C23.1905 9.19261 23.5038 11.2644 23.0358 13.4527C22.6726 15.1496 21.7941 16.5933 20.7494 17.9458C19.6355 19.3856 18.4373 20.7647 17.3696 22.2362C16.1292 23.9433 15.2813 25.8315 15.2199 27.9843C15.1662 29.8547 15.8197 31.4162 17.3338 32.5787C18.3491 33.3575 19.4821 33.3829 20.7072 33.0701C20.6471 33.0042 20.6266 32.9687 20.5946 32.9472C19.0486 31.8936 18.445 30.355 18.39 28.5808C18.3465 27.1612 18.6407 25.7732 19.3082 24.5233C20.1547 22.9378 21.0985 21.3992 22.0524 19.8732C22.9885 18.3751 23.8325 16.8491 24.2609 15.1192C24.8338 12.8043 24.5806 10.6173 23.2737 8.59361C22.899 8.01361 22.4361 7.48933 21.9962 6.9182V6.91567ZM5.92711 30.3056C5.96675 30.2752 6.00767 30.246 6.04731 30.2157C5.89258 29.8205 5.70205 29.4368 5.58951 29.0303C5.0422 27.0573 5.25192 25.1008 5.90665 23.2075C6.70588 20.8977 8.18798 19.0057 10.0013 17.3924C11.6279 15.9449 13.3517 14.6038 15.0141 13.1956C16.1125 12.2648 17.0205 11.1681 17.5639 9.82959C18.2864 8.0516 18.1253 6.25336 17.5192 4.48297C17.3031 3.85231 16.9783 3.25838 16.7033 2.64799C16.6611 2.66572 16.6189 2.68345 16.5767 2.70118C16.6279 2.83415 16.7008 2.96205 16.7276 3.10009C16.9182 4.06126 17.2225 5.01864 17.2583 5.98615C17.3248 7.75654 16.6726 9.31924 15.5051 10.6743C14.5639 11.7671 13.3913 12.5764 12.2033 13.3615C10.4322 14.5304 8.60102 15.6156 7.02558 17.0542C5.21867 18.7043 3.80179 20.5912 3.28517 23.0328C2.83887 25.1451 3.12532 27.1054 4.53581 28.8163C4.96675 29.3393 5.46036 29.8104 5.92455 30.3056H5.92711ZM26.5064 29.8205C26.124 29.0417 25.7302 28.3617 25.4476 27.6373C24.7072 25.7441 24.0179 23.8306 23.3005 21.9285C23.1535 21.5397 22.9731 21.1636 22.7852 20.7305C22.4642 21.2687 22.1969 21.7246 21.9207 22.1742C21.0933 23.5216 20.2864 24.8741 19.8632 26.4165C19.4284 28.002 19.4783 29.5331 20.3478 30.9717C21.0806 32.1836 21.9169 32.485 23.2468 32.0202C24.5409 31.5669 25.5473 30.6943 26.5064 29.8205ZM15.3005 2.3352C15.2558 2.3466 15.2097 2.35799 15.165 2.36939C15.1739 2.44917 15.1726 2.53149 15.1918 2.60747C15.4552 3.62437 15.4373 4.66026 15.2698 5.67716C14.9591 7.55772 13.8619 8.97859 12.3184 10.0309C11.1816 10.806 9.96803 11.4784 8.75448 12.1344C6.59463 13.3032 4.5601 14.6165 3.01023 16.5578C2.07801 17.7254 1.41176 19.0121 1.289 20.5114C1.17775 21.8766 1.48849 23.7052 1.94373 24.9893C1.97315 24.4701 1.96164 23.8483 2.05499 23.2417C2.14962 22.62 2.28389 21.9918 2.50895 21.4055C3.45396 18.9386 5.07673 16.9517 7.17263 15.37C8.73274 14.1922 10.3862 13.1336 12.0153 12.047C13.2251 11.2403 14.3261 10.3361 15.1381 9.11536C16.0473 7.74894 16.1304 6.22803 15.9322 4.68812C15.8299 3.8903 15.5179 3.11908 15.3005 2.3352ZM24.9885 16.8808C24.6701 17.5203 24.4412 18.1205 24.0933 18.6448C23.6151 19.3654 23.4757 20.034 24.0537 20.7521C24.1343 20.8521 24.165 20.9914 24.2136 21.1142C25.0064 23.1442 25.789 25.1793 26.5985 27.203C26.8299 27.7817 27.1432 28.3288 27.4488 28.9518C27.7366 28.5301 27.9821 28.1819 28.2161 27.8247C28.8031 26.9282 28.9936 25.9163 28.8171 24.8969C28.2967 21.9007 26.913 19.2945 24.9885 16.8808ZM2.47826 15.0774C2.52813 15.123 2.57801 15.1673 2.62788 15.2129C2.90537 14.89 3.15217 14.5354 3.46419 14.2505C5.1087 12.7486 7.03069 11.6595 8.99488 10.6312C10.4041 9.89417 11.798 9.13562 12.8593 7.9047C13.9834 6.60034 14.3274 5.08069 14.2404 3.30904C14.1355 3.54458 14.0857 3.68135 14.0153 3.80799C13.9373 3.94982 13.8478 4.08659 13.7545 4.21956C12.7609 5.62777 11.5345 6.7865 10.0499 7.68689C7.97826 8.94313 5.93734 10.2399 4.35422 12.1217C3.58951 13.0297 3.00895 14.0365 2.47698 15.08L2.47826 15.0774ZM25.7852 13.901C25.6445 14.462 25.5217 14.9103 25.4271 15.3649C25.4054 15.4662 25.4514 15.6156 25.5217 15.698C26.665 17.0428 27.6611 18.4827 28.4578 20.0581C29.2136 21.5524 29.835 23.086 30.0473 24.831C30.1752 24.4131 30.3031 24.0573 30.3926 23.6926C30.7775 22.1147 30.9808 20.5444 30.2788 18.9829C29.7391 17.7799 28.9885 16.7263 28.0409 15.8221C27.3402 15.1534 26.5678 14.5608 25.7877 13.8997L25.7852 13.901ZM29.6931 15.779C28.8338 13.4742 27.3248 11.676 25.3862 10.1361C25.5358 10.8642 25.6944 11.5164 25.7941 12.1762C25.8402 12.4788 25.9322 12.684 26.2008 12.8524C27.5 13.6692 28.6752 14.6329 29.6931 15.779Z" fill="white"/>
<path d="M55.8164 16.4102L59.6953 25H56.5078L54.2109 19.9492L51.9258 25H48.7266L52.6172 16.4102L48.7266 7.82031H51.9258L54.2109 12.8828L56.5078 7.82031H59.6953L55.8164 16.4102ZM72.7092 7.82031V25H69.7444V13.5039L64.5413 25H61.553V7.82031H64.5178V19.3164L69.7209 7.80859L72.7092 7.82031ZM84.7856 7.82031V25H81.563V17.7461H77.9419V25H74.7192V7.82031H77.9419V15.0391H81.563V7.82031H84.7856ZM94.8581 14.6641C95.53 14.7188 96.1277 14.9102 96.6511 15.2383C97.1823 15.5586 97.6472 15.9688 98.0456 16.4688C98.4519 16.9609 98.8034 17.5156 99.1003 18.1328C99.3972 18.7422 99.6472 19.3633 99.8503 19.9961C100.335 21.4805 100.659 23.1484 100.823 25H97.6706C97.5456 23.5391 97.323 22.2344 97.0027 21.0859C96.8698 20.6016 96.7058 20.125 96.5105 19.6562C96.323 19.1875 96.0964 18.7695 95.8308 18.4023C95.5652 18.0352 95.2605 17.7422 94.9167 17.5234C94.5808 17.2969 94.198 17.1836 93.7683 17.1836C93.2839 17.1836 92.8542 17.2969 92.4792 17.5234C92.1042 17.7422 91.78 18.0352 91.5066 18.4023C91.2331 18.7695 90.9987 19.1875 90.8034 19.6562C90.6159 20.125 90.4597 20.6016 90.3347 21.0859C90.0378 22.2344 89.8659 23.5391 89.8191 25H86.8777V7.82031H90.0183V16.8672C90.0261 16.8516 90.0378 16.8281 90.0534 16.7969C90.0691 16.7656 90.0925 16.7305 90.1237 16.6914L95.948 7.82031H99.4636L94.8581 14.6641ZM118.618 17.9805C118.61 18.1367 118.606 18.2969 118.606 18.4609C118.606 18.7656 118.622 19.1172 118.653 19.5156C118.692 19.9141 118.763 20.3281 118.864 20.7578C118.966 21.1797 119.091 21.5469 119.239 21.8594C119.388 22.1641 119.556 22.3672 119.743 22.4688L118.231 25.293C117.927 25.1523 117.653 24.9727 117.411 24.7539C117.177 24.5273 116.966 24.2734 116.778 23.9922C116.591 23.7109 116.427 23.4102 116.286 23.0898C116.153 22.7695 116.036 22.4414 115.935 22.1055C115.489 22.582 114.993 23.0195 114.446 23.418C113.899 23.8164 113.306 24.1641 112.665 24.4609C112.032 24.75 111.356 24.9766 110.638 25.1406C109.927 25.3125 109.181 25.4102 108.399 25.4336C108.298 25.4336 108.2 25.4336 108.106 25.4336C107.45 25.4336 106.802 25.3594 106.161 25.2109C105.52 25.0703 104.911 24.8594 104.333 24.5781C103.763 24.2891 103.247 23.9531 102.786 23.5703C102.333 23.1797 101.946 22.7617 101.626 22.3164C101.306 21.8711 101.06 21.4102 100.888 20.9336C100.724 20.4492 100.642 19.9766 100.642 19.5156C100.642 18.75 100.767 18.1016 101.017 17.5703C101.274 17.0312 101.603 16.582 102.001 16.2227C102.407 15.8555 102.86 15.5625 103.36 15.3438C103.868 15.125 104.372 14.957 104.872 14.8398C105.38 14.7227 105.856 14.6406 106.302 14.5938C106.755 14.5469 107.13 14.5117 107.427 14.4883L107.591 14.4766C108.067 14.4375 108.614 14.4062 109.231 14.3828C109.856 14.3516 110.513 14.332 111.2 14.3242C111.888 14.3086 112.587 14.3008 113.298 14.3008C114.017 14.3008 114.708 14.3047 115.372 14.3125C115.372 13.8672 115.22 13.4062 114.915 12.9297C114.61 12.4453 114.192 12.0039 113.661 11.6055C113.13 11.1992 112.497 10.8672 111.763 10.6094C111.036 10.3438 110.251 10.2109 109.407 10.2109C108.938 10.2109 108.454 10.2578 107.954 10.3516C107.462 10.4453 106.958 10.5977 106.442 10.8086C105.935 11.0195 105.419 11.293 104.895 11.6289C104.372 11.957 103.853 12.3594 103.337 12.8359L101.274 10.9727C101.837 10.3398 102.454 9.79688 103.126 9.34375C103.806 8.89062 104.501 8.51953 105.212 8.23047C105.931 7.94141 106.645 7.73047 107.356 7.59766C108.075 7.45703 108.759 7.38672 109.407 7.38672C110.563 7.38672 111.595 7.50781 112.501 7.75C113.407 7.99219 114.2 8.3125 114.88 8.71094C115.567 9.10156 116.145 9.54688 116.614 10.0469C117.091 10.5469 117.478 11.0547 117.774 11.5703C118.071 12.0859 118.286 12.5859 118.419 13.0703C118.552 13.5547 118.618 13.9805 118.618 14.3477C118.618 14.3555 118.61 14.3594 118.595 14.3594C118.587 14.3594 118.583 14.3633 118.583 14.3711H118.618V17.9805ZM104.532 21.1211C105.103 21.6367 105.731 22.0156 106.419 22.2578C107.106 22.5 107.817 22.6211 108.552 22.6211C109.349 22.6211 110.138 22.4883 110.919 22.2227C111.7 21.957 112.415 21.582 113.063 21.0977C113.72 20.6055 114.278 20.0195 114.739 19.3398C115.2 18.6523 115.505 17.8867 115.653 17.043C114.989 17.0352 114.294 17.0312 113.567 17.0312C112.849 17.0312 112.142 17.0391 111.446 17.0547C110.751 17.0625 110.091 17.0781 109.466 17.1016C108.841 17.125 108.294 17.1562 107.825 17.1953L107.649 17.207C106.86 17.2773 106.212 17.3672 105.704 17.4766C105.196 17.5859 104.794 17.7305 104.497 17.9102C104.2 18.0898 103.993 18.3125 103.876 18.5781C103.759 18.8359 103.7 19.1484 103.7 19.5156C103.7 19.8125 103.774 20.0938 103.923 20.3594C104.079 20.6172 104.282 20.8711 104.532 21.1211ZM140.796 7.80859V25H137.421V10.8438C136.577 11.0859 135.648 11.375 134.632 11.7109C133.624 12.0391 132.527 12.4727 131.339 13.0117C130.722 13.293 130.093 13.6055 129.452 13.9492C128.812 14.2852 128.191 14.6523 127.589 15.0508C126.988 15.4492 126.421 15.875 125.89 16.3281C125.359 16.7734 124.894 17.25 124.495 17.7578C124.105 18.2578 123.792 18.7852 123.558 19.3398C123.331 19.8945 123.218 20.4727 123.218 21.0742C123.218 21.4492 123.277 21.7461 123.394 21.9648C123.519 22.1758 123.663 22.3359 123.827 22.4453C123.991 22.5469 124.163 22.6133 124.343 22.6445C124.523 22.668 124.671 22.6797 124.788 22.6797V25.457C124.655 25.457 124.445 25.4375 124.155 25.3984C123.866 25.3672 123.546 25.3008 123.195 25.1992C122.843 25.0977 122.48 24.9492 122.105 24.7539C121.738 24.5586 121.398 24.3008 121.085 23.9805C120.78 23.6523 120.53 23.2539 120.335 22.7852C120.14 22.3086 120.042 21.7383 120.042 21.0742C120.042 20.1602 120.21 19.293 120.546 18.4727C120.882 17.6445 121.339 16.8672 121.917 16.1406C122.495 15.4141 123.175 14.7344 123.956 14.1016C124.745 13.4609 125.589 12.8672 126.488 12.3203C127.394 11.7734 128.335 11.2734 129.312 10.8203C130.288 10.3594 131.257 9.94141 132.218 9.56641C133.179 9.19141 134.109 8.85938 135.007 8.57031C135.913 8.27344 136.745 8.01953 137.503 7.80859H140.796ZM147.634 14.3477C148.009 14.2539 148.372 14.207 148.724 14.207C149.388 14.207 150.001 14.3516 150.564 14.6406C151.134 14.9219 151.619 15.3047 152.017 15.7891C152.415 16.2734 152.701 16.7969 152.872 17.3594C153.052 17.9141 153.142 18.4531 153.142 18.9766C153.142 19.1562 153.119 19.4688 153.072 19.9141C153.033 20.3594 152.826 20.9531 152.451 21.6953C152.083 22.4375 151.533 23.1484 150.798 23.8281C150.111 24.3906 149.408 24.7891 148.689 25.0234C147.978 25.2656 147.232 25.3867 146.451 25.3867C146.013 25.3867 145.56 25.3086 145.091 25.1523C144.622 25.0039 144.181 24.7734 143.767 24.4609C143.353 24.1406 142.99 23.7422 142.677 23.2656C142.372 22.7891 142.177 22.3086 142.091 21.8242C142.005 21.3398 141.962 20.918 141.962 20.5586C141.962 20.1836 142.005 19.6875 142.091 19.0703C142.185 18.4453 142.458 17.6289 142.912 16.6211C143.099 16.1992 143.302 15.7539 143.521 15.2852C143.74 14.8086 143.958 14.3242 144.177 13.832C144.404 13.3398 144.626 12.8516 144.845 12.3672C145.064 11.875 145.275 11.4062 145.478 10.9609C145.955 9.91406 146.435 8.86719 146.919 7.82031H150.247L146.861 15.0977C146.29 16.2773 145.853 17.3398 145.548 18.2852C145.251 19.2227 145.099 19.8672 145.091 20.2188C145.083 20.5625 145.08 20.7539 145.08 20.793C145.08 21.3945 145.208 21.8672 145.466 22.2109C145.732 22.5547 146.154 22.7266 146.732 22.7266C147.326 22.7266 147.853 22.5859 148.314 22.3047C148.775 22.0156 149.158 21.6562 149.462 21.2266C149.767 20.7891 149.97 20.3711 150.072 19.9727C150.173 19.5664 150.224 19.2266 150.224 18.9531C150.224 18.7656 150.193 18.5234 150.13 18.2266C150.076 17.9219 149.896 17.6289 149.591 17.3477C149.294 17.0586 148.869 16.9141 148.314 16.9141C148.111 16.9141 147.884 16.9375 147.634 16.9844V14.3477ZM164.281 7.82031V25H161.058V17.7461H157.437V25H154.215V7.82031H157.437V15.0391H161.058V7.82031H164.281ZM183.447 17.9805C183.439 18.1367 183.435 18.2969 183.435 18.4609C183.435 18.7656 183.451 19.1172 183.482 19.5156C183.521 19.9141 183.592 20.3281 183.693 20.7578C183.795 21.1797 183.92 21.5469 184.068 21.8594C184.217 22.1641 184.385 22.3672 184.572 22.4688L183.06 25.293C182.756 25.1523 182.482 24.9727 182.24 24.7539C182.006 24.5273 181.795 24.2734 181.607 23.9922C181.42 23.7109 181.256 23.4102 181.115 23.0898C180.982 22.7695 180.865 22.4414 180.764 22.1055C180.318 22.582 179.822 23.0195 179.275 23.418C178.728 23.8164 178.135 24.1641 177.494 24.4609C176.861 24.75 176.185 24.9766 175.467 25.1406C174.756 25.3125 174.01 25.4102 173.228 25.4336C173.127 25.4336 173.029 25.4336 172.935 25.4336C172.279 25.4336 171.631 25.3594 170.99 25.2109C170.35 25.0703 169.74 24.8594 169.162 24.5781C168.592 24.2891 168.076 23.9531 167.615 23.5703C167.162 23.1797 166.775 22.7617 166.455 22.3164C166.135 21.8711 165.889 21.4102 165.717 20.9336C165.553 20.4492 165.471 19.9766 165.471 19.5156C165.471 18.75 165.596 18.1016 165.846 17.5703C166.103 17.0312 166.432 16.582 166.83 16.2227C167.236 15.8555 167.689 15.5625 168.189 15.3438C168.697 15.125 169.201 14.957 169.701 14.8398C170.209 14.7227 170.685 14.6406 171.131 14.5938C171.584 14.5469 171.959 14.5117 172.256 14.4883L172.42 14.4766C172.896 14.4375 173.443 14.4062 174.06 14.3828C174.685 14.3516 175.342 14.332 176.029 14.3242C176.717 14.3086 177.416 14.3008 178.127 14.3008C178.846 14.3008 179.537 14.3047 180.201 14.3125C180.201 13.8672 180.049 13.4062 179.744 12.9297C179.439 12.4453 179.021 12.0039 178.49 11.6055C177.959 11.1992 177.326 10.8672 176.592 10.6094C175.865 10.3438 175.08 10.2109 174.236 10.2109C173.768 10.2109 173.283 10.2578 172.783 10.3516C172.291 10.4453 171.787 10.5977 171.271 10.8086C170.764 11.0195 170.248 11.293 169.725 11.6289C169.201 11.957 168.682 12.3594 168.166 12.8359L166.103 10.9727C166.666 10.3398 167.283 9.79688 167.955 9.34375C168.635 8.89062 169.33 8.51953 170.041 8.23047C170.76 7.94141 171.475 7.73047 172.185 7.59766C172.904 7.45703 173.588 7.38672 174.236 7.38672C175.393 7.38672 176.424 7.50781 177.33 7.75C178.236 7.99219 179.029 8.3125 179.709 8.71094C180.396 9.10156 180.975 9.54688 181.443 10.0469C181.92 10.5469 182.307 11.0547 182.603 11.5703C182.9 12.0859 183.115 12.5859 183.248 13.0703C183.381 13.5547 183.447 13.9805 183.447 14.3477C183.447 14.3555 183.439 14.3594 183.424 14.3594C183.416 14.3594 183.412 14.3633 183.412 14.3711H183.447V17.9805ZM169.361 21.1211C169.932 21.6367 170.56 22.0156 171.248 22.2578C171.935 22.5 172.646 22.6211 173.381 22.6211C174.178 22.6211 174.967 22.4883 175.748 22.2227C176.529 21.957 177.244 21.582 177.893 21.0977C178.549 20.6055 179.107 20.0195 179.568 19.3398C180.029 18.6523 180.334 17.8867 180.482 17.043C179.818 17.0352 179.123 17.0312 178.396 17.0312C177.678 17.0312 176.971 17.0391 176.275 17.0547C175.58 17.0625 174.92 17.0781 174.295 17.1016C173.67 17.125 173.123 17.1562 172.654 17.1953L172.478 17.207C171.689 17.2773 171.041 17.3672 170.533 17.4766C170.025 17.5859 169.623 17.7305 169.326 17.9102C169.029 18.0898 168.822 18.3125 168.705 18.5781C168.588 18.8359 168.529 19.1484 168.529 19.5156C168.529 19.8125 168.603 20.0938 168.752 20.3594C168.908 20.6172 169.111 20.8711 169.361 21.1211ZM193.649 7.43359C194.289 7.43359 194.914 7.54297 195.524 7.76172C196.133 7.97266 196.688 8.28516 197.188 8.69922C197.688 9.11328 198.117 9.62109 198.477 10.2227C198.836 10.8164 199.063 11.3984 199.156 11.9688C199.25 12.5312 199.297 13.0117 199.297 13.4102C199.297 13.8555 199.242 14.4336 199.133 15.1445C199.024 15.8555 198.727 16.7461 198.242 17.8164L197.094 20.3477C196.906 20.7617 196.723 21.1641 196.543 21.5547C196.363 21.9453 196.195 22.3125 196.039 22.6562C195.672 23.4688 195.317 24.25 194.973 25H191.645L195.031 17.7227C195.602 16.543 195.926 15.6367 196.004 15.0039C196.082 14.3633 196.121 13.8945 196.121 13.5977C196.121 13.0508 196.035 12.5078 195.863 11.9688C195.692 11.4219 195.375 10.9727 194.914 10.6211C194.453 10.2695 193.934 10.0938 193.356 10.0938C192.785 10.0938 192.281 10.2305 191.844 10.5039C191.406 10.7773 191.047 11.1172 190.766 11.5234C190.492 11.9297 190.317 12.3164 190.238 12.6836C190.16 13.043 190.121 13.3398 190.121 13.5742C190.121 13.7852 190.156 14.043 190.227 14.3477C190.297 14.6445 190.485 14.9297 190.789 15.2031C191.102 15.4766 191.527 15.6133 192.067 15.6133C192.418 15.6133 192.805 15.5508 193.227 15.4258L193.953 17.0547L186.793 25H183.371L189.84 17.6289C189.418 17.5586 189.031 17.3711 188.68 17.0664C188.328 16.7617 188.031 16.3828 187.789 15.9297C187.555 15.4688 187.402 15.0273 187.332 14.6055C187.262 14.1758 187.227 13.8203 187.227 13.5391C187.227 13.2266 187.266 12.8359 187.344 12.3672C187.422 11.8984 187.621 11.3555 187.942 10.7383C188.262 10.1133 188.715 9.52734 189.301 8.98047C189.988 8.42578 190.688 8.03125 191.399 7.79688C192.117 7.55469 192.867 7.43359 193.649 7.43359Z" fill="white"/>
</svg>
